<svg width="156" height="26" viewBox="0 0 156 26" fill="none" xmlns="http://www.w3.org/2000/svg">
<path d="M40.255 16.4843H36.294V25.9193H29.763V0.108292H41.863C44.963 0.108292 47.323 0.759292 48.929 2.16929C49.7589 2.93961 50.4096 3.88277 50.835 4.93215C51.2604 5.98152 51.4502 7.11151 51.391 8.24229C51.4561 9.89344 51.0064 11.524 50.104 12.9083C49.17 14.2066 47.8631 15.1901 46.357 15.7283L52.781 25.8083H45.501L40.255 16.4843ZM36.294 11.7083H40.794C41.8832 11.8104 42.9751 11.543 43.894 10.9493C44.2374 10.6371 44.5033 10.2491 44.6706 9.81618C44.838 9.38327 44.9021 8.91732 44.858 8.45529C44.8913 7.9942 44.8222 7.53145 44.6555 7.10025C44.4888 6.66905 44.2288 6.28009 43.894 5.96129C42.9751 5.36755 41.8832 5.10021 40.794 5.20229H36.294V11.7083Z" fill="#222222"/>
<path d="M73.979 20.0633H65.2L63.38 25.9193H56.742L65.735 0.108292H73.657L82.542 25.9193H75.692L73.979 20.0633ZM72.587 15.5083L70.767 9.32629L69.696 5.31329H69.589L68.518 9.32629L66.592 15.5083H72.587Z" fill="#222222"/>
<path d="M97.746 16.4843V25.9193H91.108V16.4843L82.115 0.108292H88.967L92.5 7.15729L94.427 11.4953L96.354 7.15729L99.887 0.108292H106.632L97.746 16.4843Z" fill="#222222"/>
<path d="M123.548 19.9553H114.769L112.949 25.8113H106.311L115.304 0.000289917H123.226L132.111 25.8113H125.261L123.548 19.9553ZM122.156 15.4003L120.336 9.21829L119.265 5.20529H119.158L118.087 9.21829L116.161 15.4003H122.156Z" fill="#222222"/>
<path d="M135.035 19.2053L130.529 6.30729L129.951 4.51629L129.227 2.41029C129.139 2.18877 129.096 1.95176 129.102 1.71341C129.107 1.47506 129.161 1.24027 129.259 1.02306C129.357 0.805855 129.498 0.610687 129.674 0.44922C129.849 0.287753 130.055 0.163299 130.28 0.0832945C130.511 0.0111007 130.753 -0.014545 130.994 0.00784746C131.235 0.0302399 131.468 0.100224 131.682 0.213734C131.895 0.327244 132.084 0.482016 132.237 0.66906C132.39 0.856104 132.504 1.07169 132.573 1.30329L133.288 3.41929C133.301 3.44529 133.298 3.44029 133.288 3.42629L135.036 8.59429L138.02 17.2563H148.425L151.425 10.5043H143.172C142.734 10.5043 142.315 10.3305 142.005 10.021C141.696 9.71158 141.522 9.2919 141.522 8.85429C141.522 8.41669 141.696 7.997 142.005 7.68757C142.315 7.37813 142.734 7.20429 143.172 7.20429H153.596C153.854 7.19118 154.112 7.24135 154.346 7.35045C154.581 7.45955 154.785 7.62427 154.941 7.83029C155.097 8.0363 155.201 8.27737 155.243 8.53252C155.284 8.78767 155.263 9.04918 155.181 9.29429L151.263 19.3433C151.167 19.6896 150.96 19.9949 150.674 20.2125C150.388 20.4301 150.038 20.5481 149.679 20.5483H136.615C135.972 20.5483 135.435 20.1263 135.035 19.2053Z" fill="#3B80EE"/>
<path d="M138.677 25.9513C139.775 25.9513 140.666 25.0608 140.666 23.9623C140.666 22.8638 139.775 21.9733 138.677 21.9733C137.579 21.9733 136.688 22.8638 136.688 23.9623C136.688 25.0608 137.579 25.9513 138.677 25.9513Z" fill="#3B80EE"/>
<path d="M147.693 25.9513C148.791 25.9513 149.682 25.0608 149.682 23.9623C149.682 22.8638 148.791 21.9733 147.693 21.9733C146.595 21.9733 145.704 22.8638 145.704 23.9623C145.704 25.0608 146.595 25.9513 147.693 25.9513Z" fill="#3B80EE"/>
<path d="M6.637 25.9213H0V19.9503L6.637 11.4943L15.738 0.108292H23.126L14.453 10.5193L23.553 25.9193H16.059L9.743 14.8583L6.638 18.6583V25.9253L6.637 25.9213ZM0 12.5013V0.108292H6.637V4.00829L0 12.4993V12.5013Z" fill="#222222"/>
</svg>
